<svg class="icon" style="width: 1em;height: 1em;vertical-align: middle;fill: currentColor;overflow: hidden;" viewBox="0 0 1024 1024" version="1.1" xmlns="http://www.w3.org/2000/svg"><path d="M511.989633 954.16721c243.813473 0 442.177577-198.364104 442.177577-442.156843S755.803106 69.83279 511.989633 69.83279 69.83279 268.196894 69.83279 512.010367s198.364104 442.156843 442.156843 442.156843m0 69.83279C229.23733 1024 0 794.76267 0 512.010367S229.23733 0 511.989633 0s512.010367 229.23733 512.010367 512.010367-229.23733 511.989633-512.010367 511.989633z" fill="#5579D2" /><path d="M662.395529 304.64762H361.604471a40.079211 40.079211 0 0 0-40.099946 40.099945V679.252435a40.079211 40.079211 0 0 0 40.099946 40.099945h300.791058a40.079211 40.079211 0 0 0 40.099946-40.099945V344.747565a40.079211 40.079211 0 0 0-40.099946-40.099945z m-173.794075 311.013019H415.09871a16.7325 16.7325 0 1 1 0-33.444266h73.502744a16.7325 16.7325 0 1 1 0 33.444266z m53.494239-86.938506H415.09871a16.7325 16.7325 0 1 1 0-33.444266h126.955515a16.7325 16.7325 0 1 1 0 33.444266z m66.805597-86.834835H415.09871a16.7325 16.7325 0 0 1 0-33.465001h193.80258a16.7325 16.7325 0 0 1 0 33.465001z" fill="#5579D2" /></svg>