<svg class="icon" style="width: 1em;height: 1em;vertical-align: middle;fill: currentColor;overflow: hidden;" viewBox="0 0 1024 1024" version="1.1" xmlns="http://www.w3.org/2000/svg"><path d="M720.863492 0H163.75873C114.671746 0 74.768254 38.359365 74.768254 85.495873v587.987302l31.532698-31.532699V85.495873c0-29.744762 25.76254-53.963175 57.457778-53.963175h543.04508l210.976507 235.68254v671.370159c0 29.744762-25.76254 53.963175-57.457777 53.963174H163.75873c-31.695238 0-57.457778-24.218413-57.457778-53.963174V718.262857L74.768254 749.714286v188.789841c0 47.136508 39.903492 85.495873 88.909206 85.495873h696.56381c49.005714 0 88.990476-38.359365 88.990476-85.495873V255.106032L720.863492 0z" fill="#0078FF" /><path d="M568.48254 317.765079c0 10.15873-3.982222 19.829841-11.133969 26.981588-7.151746 7.151746-16.822857 11.133968-26.981587 11.133968H324.185397c-10.15873 0-19.829841-3.982222-26.981587-11.133968a38.196825 38.196825 0 0 1-11.133969-26.981588c0-21.130159 17.066667-38.115556 38.115556-38.115555h206.181587a38.115556 38.115556 0 0 1 38.115556 38.115555zM747.845079 507.286349a38.196825 38.196825 0 0 1-11.133968 26.981588c-7.151746 7.151746-16.822857 11.133968-26.981587 11.133968H327.111111c-10.15873 0-19.829841-3.982222-26.981587-11.133968a38.196825 38.196825 0 0 1-11.133968-26.981588c0-10.15873 3.982222-19.829841 11.133968-26.981587a38.196825 38.196825 0 0 1 26.981587-11.133968h382.618413a38.115556 38.115556 0 0 1 38.115555 38.115555zM747.845079 696.807619c0 10.15873-3.982222 19.829841-11.133968 26.981587-7.151746 7.151746-16.822857 11.133968-26.981587 11.133969H327.111111a38.196825 38.196825 0 0 1-26.981587-11.133969 37.72546 37.72546 0 0 1-11.133968-26.981587c0-10.15873 3.982222-19.829841 11.133968-26.981587a38.196825 38.196825 0 0 1 26.981587-11.133969h382.618413c20.967619 0 38.115556 17.147937 38.115555 38.115556zM698.026667 15.766349h31.532698v261.28254h-31.532698z" fill="#0078FF" /><path d="M713.793016 245.434921h219.672381v31.532698H713.793016z" fill="#0078FF" /></svg>